REM DIRINDEX 1\2\6,1\2\7,1\2\8,1\2\9,1\3\10,1\3\11,1\4\12,1\4\13,1\4\14,1\5\15,1\5\16,1\5\17
REM DIRNAME folder01,folder02,folder03,folder04,folder05,folder06,folder07,folder08,folder09,folder10,folder11,folder12,folder13,folder14,folder15,folder16,folder17
TITLE ""
FILE "1900_3_069 sec12_1133_1148.mp3" MP3
  TRACK 01 AUDIO
    TITLE "0:"
    INDEX 01 00:00:00
  TRACK 02 AUDIO
    TITLE "17:cjc020_8244"
    INDEX 01 00:00:11
  TRACK 03 AUDIO
    TITLE "0:"
    INDEX 01 00:01:40
  TRACK 04 AUDIO
    TITLE "16:cjc020_8245"
    INDEX 01 00:01:42
  TRACK 05 AUDIO
    TITLE "0:"
    INDEX 01 00:02:57
  TRACK 06 AUDIO
    TITLE "17:cjc020_8246"
    INDEX 01 00:03:39
  TRACK 07 AUDIO
    TITLE "0:"
    INDEX 01 00:04:72
  TRACK 08 AUDIO
    TITLE "16:cjc020_8247"
    INDEX 01 00:04:74
  TRACK 09 AUDIO
    TITLE "0:"
    INDEX 01 00:06:39
  TRACK 10 AUDIO
    TITLE "17:cjc020_8248"
    INDEX 01 00:07:17
  TRACK 11 AUDIO
    TITLE "0:"
    INDEX 01 00:11:05
  TRACK 12 AUDIO
    TITLE "16:cjc020_8249"
    INDEX 01 00:11:11
  TRACK 13 AUDIO
    TITLE "0:"
    INDEX 01 00:12:30
  TRACK 14 AUDIO
    TITLE "17:cjc020_8250"
    INDEX 01 00:13:16
  TRACK 15 AUDIO
    TITLE "0:"
    INDEX 01 00:17:08
  TRACK 16 AUDIO
    TITLE "16:cjc020_8251"
    INDEX 01 00:17:16
  TRACK 17 AUDIO
    TITLE "0:"
    INDEX 01 00:18:25
  TRACK 18 AUDIO
    TITLE "17:cjc020_8252"
    INDEX 01 00:19:05
  TRACK 19 AUDIO
    TITLE "0:"
    INDEX 01 00:20:08
  TRACK 20 AUDIO
    TITLE "16:cjc020_8253"
    INDEX 01 00:20:14
  TRACK 21 AUDIO
    TITLE "0:"
    INDEX 01 00:21:21
  TRACK 22 AUDIO
    TITLE "17:cjc020_8254"
    INDEX 01 00:22:03
  TRACK 23 AUDIO
    TITLE "0:"
    INDEX 01 00:23:32
  TRACK 24 AUDIO
    TITLE "16:cjc020_8255"
    INDEX 01 00:23:36
  TRACK 25 AUDIO
    TITLE "0:"
    INDEX 01 00:24:49
  TRACK 26 AUDIO
    TITLE "17:cjc020_8256"
    INDEX 01 00:25:33
  TRACK 27 AUDIO
    TITLE "0:"
    INDEX 01 00:27:18
  TRACK 28 AUDIO
    TITLE "16:cjc020_8257"
    INDEX 01 00:27:24
  TRACK 29 AUDIO
    TITLE "0:"
    INDEX 01 00:28:37
  TRACK 30 AUDIO
    TITLE "17:cjc020_8258"
    INDEX 01 00:29:21
  TRACK 31 AUDIO
    TITLE "0:"
    INDEX 01 00:30:61
  TRACK 32 AUDIO
    TITLE "16:cjc020_8259"
    INDEX 01 00:30:63
  TRACK 33 AUDIO
    TITLE "0:"
    INDEX 01 00:32:03
  TRACK 34 AUDIO
    TITLE "17:cjc020_8260"
    INDEX 01 00:32:62
  TRACK 35 AUDIO
    TITLE "0:"
    INDEX 01 00:33:64
  TRACK 36 AUDIO
    TITLE "16:cjc020_8261"
    INDEX 01 00:33:71
  TRACK 37 AUDIO
    TITLE "0:"
    INDEX 01 00:35:15
  TRACK 38 AUDIO
    TITLE "17:cjc020_8262"
    INDEX 01 00:36:01
  TRACK 39 AUDIO
    TITLE "0:"
    INDEX 01 00:37:42
  TRACK 40 AUDIO
    TITLE "16:cjc020_8263"
    INDEX 01 00:37:46
  TRACK 41 AUDIO
    TITLE "0:"
    INDEX 01 00:38:65
  TRACK 42 AUDIO
    TITLE "17:cjc020_8264"
    INDEX 01 00:39:51
  TRACK 43 AUDIO
    TITLE "0:"
    INDEX 01 00:40:60
  TRACK 44 AUDIO
    TITLE "16:cjc020_8265"
    INDEX 01 00:40:62
  TRACK 45 AUDIO
    TITLE "0:"
    INDEX 01 00:42:06
  TRACK 46 AUDIO
    TITLE "17:cjc020_8266"
    INDEX 01 00:42:63
  TRACK 47 AUDIO
    TITLE "0:"
    INDEX 01 00:44:14
  TRACK 48 AUDIO
    TITLE "16:cjc020_8267"
    INDEX 01 00:44:22
  TRACK 49 AUDIO
    TITLE "0:"
    INDEX 01 00:45:67
  TRACK 50 AUDIO
    TITLE "17:cjc020_8268"
    INDEX 01 00:46:54
  TRACK 51 AUDIO
    TITLE "0:"
    INDEX 01 00:47:58
  TRACK 52 AUDIO
    TITLE "16:cjc020_8269"
    INDEX 01 00:47:64
  TRACK 53 AUDIO
    TITLE "0:"
    INDEX 01 00:48:69
  TRACK 54 AUDIO
    TITLE "17:cjc020_8270"
    INDEX 01 00:49:55
  TRACK 55 AUDIO
    TITLE "0:"
    INDEX 01 00:50:56
  TRACK 56 AUDIO
    TITLE "16:cjc020_8271"
    INDEX 01 00:50:62
  TRACK 57 AUDIO
    TITLE "0:"
    INDEX 01 00:51:65
  TRACK 58 AUDIO
    TITLE "17:cjc020_8272"
    INDEX 01 00:52:47
  TRACK 59 AUDIO
    TITLE "0:"
    INDEX 01 00:54:15
  TRACK 60 AUDIO
    TITLE "16:cjc020_8273"
    INDEX 01 00:54:17
  TRACK 61 AUDIO
    TITLE "0:"
    INDEX 01 00:55:42
  TRACK 62 AUDIO
    TITLE "17:cjc020_8274"
    INDEX 01 00:56:29
  TRACK 63 AUDIO
    TITLE "0:"
    INDEX 01 00:57:39
  TRACK 64 AUDIO
    TITLE "16:cjc020_8275"
    INDEX 01 00:57:48
  TRACK 65 AUDIO
    TITLE "0:"
    INDEX 01 00:58:52
